<svg xmlns="http://www.w3.org/2000/svg" width="292.562" height="45.688" viewBox="0 0 292.562 45.688"><defs><style>.a,.b{fill:#f52c79;}.b{opacity:0.353;}</style></defs><path class="a" d="M22.844,45.688A22.85,22.85,0,0,1,13.952,1.8a22.85,22.85,0,0,1,17.784,42.1A22.7,22.7,0,0,1,22.844,45.688ZM15.5,12.238h0c-1.617,0-3.225,1-4.779,2.962A6.815,6.815,0,0,0,9.33,20.437a15.479,15.479,0,0,0,2.519,6.231,39.366,39.366,0,0,0,4.57,5.74,62.432,62.432,0,0,0,6.342,5.841c.01-.008,1.2-.943,2.867-2.468a59.727,59.727,0,0,0,5.71-5.944A24.707,24.707,0,0,0,35.862,22.3c.936-2.82.658-5.21-.825-7.1s-3.075-2.875-4.7-2.875A5.247,5.247,0,0,0,27.32,13.4a11.773,11.773,0,0,0-2.4,2.367,20.328,20.328,0,0,0-2.158,3.443,19.629,19.629,0,0,0-2.018-3.486,11.214,11.214,0,0,0-2.294-2.4,4.956,4.956,0,0,0-2.947-1.09Z"/><path class="a" d="M22.844,45.688A22.85,22.85,0,0,1,13.952,1.8a22.85,22.85,0,0,1,17.784,42.1A22.7,22.7,0,0,1,22.844,45.688ZM15.5,12.238h0c-1.617,0-3.225,1-4.779,2.962A6.815,6.815,0,0,0,9.33,20.437a15.479,15.479,0,0,0,2.519,6.231,39.366,39.366,0,0,0,4.57,5.74,62.432,62.432,0,0,0,6.342,5.841c.01-.008,1.2-.943,2.867-2.468a59.727,59.727,0,0,0,5.71-5.944A24.707,24.707,0,0,0,35.862,22.3c.936-2.82.658-5.21-.825-7.1s-3.075-2.875-4.7-2.875A5.247,5.247,0,0,0,27.32,13.4a11.773,11.773,0,0,0-2.4,2.367,20.328,20.328,0,0,0-2.158,3.443,19.629,19.629,0,0,0-2.018-3.486,11.214,11.214,0,0,0-2.294-2.4,4.956,4.956,0,0,0-2.947-1.09Z" transform="translate(61.719)"/><path class="b" d="M22.844,45.688A22.85,22.85,0,0,1,13.952,1.8a22.85,22.85,0,0,1,17.784,42.1A22.7,22.7,0,0,1,22.844,45.688ZM15.5,12.238h0c-1.617,0-3.225,1-4.779,2.962A6.815,6.815,0,0,0,9.33,20.437a15.479,15.479,0,0,0,2.519,6.231,39.366,39.366,0,0,0,4.57,5.74,62.432,62.432,0,0,0,6.342,5.841c.01-.008,1.2-.943,2.867-2.468a59.727,59.727,0,0,0,5.71-5.944A24.707,24.707,0,0,0,35.862,22.3c.936-2.82.658-5.21-.825-7.1s-3.075-2.875-4.7-2.875A5.247,5.247,0,0,0,27.32,13.4a11.773,11.773,0,0,0-2.4,2.367,20.328,20.328,0,0,0-2.158,3.443,19.629,19.629,0,0,0-2.018-3.486,11.214,11.214,0,0,0-2.294-2.4,4.956,4.956,0,0,0-2.947-1.09Z" transform="translate(123.437)"/><path class="b" d="M22.844,45.688A22.85,22.85,0,0,1,13.952,1.8a22.85,22.85,0,0,1,17.784,42.1A22.7,22.7,0,0,1,22.844,45.688ZM15.5,12.238h0c-1.617,0-3.225,1-4.779,2.962A6.815,6.815,0,0,0,9.33,20.437a15.479,15.479,0,0,0,2.519,6.231,39.366,39.366,0,0,0,4.57,5.74,62.432,62.432,0,0,0,6.342,5.841c.01-.008,1.2-.943,2.867-2.468a59.727,59.727,0,0,0,5.71-5.944A24.707,24.707,0,0,0,35.862,22.3c.936-2.82.658-5.21-.825-7.1s-3.075-2.875-4.7-2.875A5.247,5.247,0,0,0,27.32,13.4a11.773,11.773,0,0,0-2.4,2.367,20.328,20.328,0,0,0-2.158,3.443,19.629,19.629,0,0,0-2.018-3.486,11.214,11.214,0,0,0-2.294-2.4,4.956,4.956,0,0,0-2.947-1.09Z" transform="translate(185.156)"/><path class="b" d="M22.844,45.688A22.85,22.85,0,0,1,13.952,1.8a22.85,22.85,0,0,1,17.784,42.1A22.7,22.7,0,0,1,22.844,45.688ZM15.5,12.238h0c-1.617,0-3.225,1-4.779,2.962A6.815,6.815,0,0,0,9.33,20.437a15.479,15.479,0,0,0,2.519,6.231,39.366,39.366,0,0,0,4.57,5.74,62.432,62.432,0,0,0,6.342,5.841c.01-.008,1.2-.943,2.867-2.468a59.727,59.727,0,0,0,5.71-5.944A24.707,24.707,0,0,0,35.862,22.3c.936-2.82.658-5.21-.825-7.1s-3.075-2.875-4.7-2.875A5.247,5.247,0,0,0,27.32,13.4a11.773,11.773,0,0,0-2.4,2.367,20.328,20.328,0,0,0-2.158,3.443,19.629,19.629,0,0,0-2.018-3.486,11.214,11.214,0,0,0-2.294-2.4,4.956,4.956,0,0,0-2.947-1.09Z" transform="translate(246.874)"/></svg>