<svg xmlns="http://www.w3.org/2000/svg" width="34" height="34" viewBox="0 0 34 34"><defs><style>.a{fill:#fff;}</style></defs><path class="a" d="M-668.5-12.5a16.894,16.894,0,0,1-6.617-1.336,16.944,16.944,0,0,1-5.4-3.643,16.945,16.945,0,0,1-3.643-5.4A16.894,16.894,0,0,1-685.5-29.5a16.893,16.893,0,0,1,1.336-6.617,16.946,16.946,0,0,1,3.643-5.4,16.943,16.943,0,0,1,5.4-3.643A16.893,16.893,0,0,1-668.5-46.5a16.893,16.893,0,0,1,6.617,1.336,16.944,16.944,0,0,1,5.4,3.643,16.945,16.945,0,0,1,3.643,5.4A16.893,16.893,0,0,1-651.5-29.5a16.894,16.894,0,0,1-1.336,6.617,16.945,16.945,0,0,1-3.643,5.4,16.944,16.944,0,0,1-5.4,3.643A16.894,16.894,0,0,1-668.5-12.5Zm-5.465-24.893h0c-1.2,0-2.4.742-3.557,2.2a5.072,5.072,0,0,0-1.036,3.9,11.519,11.519,0,0,0,1.874,4.637,29.3,29.3,0,0,0,3.4,4.272,46.459,46.459,0,0,0,4.72,4.347c.008-.006.891-.7,2.133-1.837A44.45,44.45,0,0,0-662.18-24.3a18.385,18.385,0,0,0,3.367-5.607,5.385,5.385,0,0,0-.614-5.286,4.62,4.62,0,0,0-3.5-2.14,3.9,3.9,0,0,0-2.246.8,8.762,8.762,0,0,0-1.787,1.762,15.127,15.127,0,0,0-1.606,2.562,14.613,14.613,0,0,0-1.5-2.594,8.347,8.347,0,0,0-1.707-1.784,3.688,3.688,0,0,0-2.193-.811Z" transform="translate(685.5 46.5)"/></svg>