<svg xmlns="http://www.w3.org/2000/svg" width="433.219" height="177" viewBox="0 0 433.219 177"><defs><style>.a,.b{fill:#f52c79;}.a{font-size:59px;font-family:Bauhaus93, "Bauhaus 93";}.c,.d,.e,.g{fill:#fff;}.c,.d{stroke-linecap:round;}.d,.e{stroke:#fff;}.d{stroke-linejoin:round;stroke-width:2px;}.f,.g{stroke:none;}.h{fill:none;}</style></defs><g transform="translate(-419.781 -115)"><text class="a" transform="translate(614 168)"><tspan x="0" y="0">The</tspan><tspan x="0" y="55">Love Talk</tspan><tspan x="0" y="110">Test</tspan></text><g transform="translate(419.781 121.628)"><path class="b" d="M490.7,251.455s-33.341-78.6-75.505-25.187S490.7,371.034,490.7,371.034,608.463,278.4,567.689,226.267,490.7,251.455,490.7,251.455Z" transform="translate(-406.077 -207.664)"/><g class="c" transform="translate(-4501.12 -3715.844)"><path class="f" d="M 4584.794921875 3880.707763671875 L 4583.57958984375 3878.8935546875 C 4583.5048828125 3878.7822265625 4576.04931640625 3867.633544921875 4569.216796875 3855.6435546875 C 4565.1884765625 3848.57421875 4562.15576171875 3842.58935546875 4560.20361328125 3837.85546875 C 4557.54150390625 3831.400390625 4556.87646484375 3827.317138671875 4558.1103515625 3825.005126953125 C 4558.8115234375 3823.69091796875 4560.12109375 3822.967041015625 4561.7978515625 3822.967041015625 C 4562.02783203125 3822.967041015625 4562.26953125 3822.980224609375 4562.5166015625 3823.00634765625 L 4562.5947265625 3823.0146484375 L 4562.671875 3823.031005859375 C 4563.828125 3823.27734375 4564.9501953125 3823.40234375 4566.00732421875 3823.40234375 C 4571.00048828125 3823.402099609375 4574.9443359375 3820.62255859375 4577.72900390625 3815.141357421875 C 4580.10107421875 3810.472900390625 4581.5390625 3803.9033203125 4581.77734375 3796.64306640625 L 4581.779296875 3796.572509765625 L 4581.78857421875 3796.50244140625 C 4582.1689453125 3793.521240234375 4582.36962890625 3790.398681640625 4582.42041015625 3786.67578125 C 4582.4228515625 3786.514892578125 4582.42578125 3786.350341796875 4582.4296875 3786.18408203125 C 4582.2587890625 3782.527099609375 4582.134765625 3778.7783203125 4582.01416015625 3775.15234375 C 4581.7509765625 3767.216064453125 4581.501953125 3759.719970703125 4580.8095703125 3753.294921875 C 4580.056640625 3746.313720703125 4578.8623046875 3741.631591796875 4577.1572265625 3738.980712890625 C 4575.94189453125 3737.090576171875 4575.14794921875 3735.397216796875 4574.7978515625 3733.94775390625 C 4574.4248046875 3732.40185546875 4574.53369140625 3731.072265625 4575.12109375 3729.99609375 C 4575.7314453125 3728.877197265625 4577.12890625 3727.54345703125 4580.3173828125 3727.54345703125 C 4582.5654296875 3727.54345703125 4585.32568359375 3728.23291015625 4587.890625 3729.434814453125 C 4589.46728515625 3730.173828125 4592.3330078125 3731.76171875 4593.80810546875 3734.092529296875 C 4594.5107421875 3735.203125 4595.1611328125 3736.923095703125 4594.2666015625 3738.8115234375 L 4594.2548828125 3738.837158203125 L 4594.24169921875 3738.8623046875 C 4592.75048828125 3741.72607421875 4590.6435546875 3749.84521484375 4588.7431640625 3760.05078125 C 4586.8486328125 3770.226806640625 4585.5810546875 3780.21875 4585.43115234375 3786.150146484375 C 4585.70361328125 3791.949951171875 4586.04833984375 3796.5 4586.51611328125 3800.46630859375 C 4587.08837890625 3805.322998046875 4587.84130859375 3809.24951171875 4588.818359375 3812.470458984375 C 4589.88232421875 3815.978759765625 4591.2314453125 3818.644287109375 4592.82861328125 3820.392822265625 C 4594.4814453125 3822.20263671875 4596.42138671875 3823.08251953125 4598.76025390625 3823.08251953125 C 4599.14990234375 3823.08251953125 4599.55712890625 3823.0576171875 4599.9697265625 3823.008544921875 C 4600.6337890625 3822.9296875 4601.27197265625 3822.8896484375 4601.8671875 3822.8896484375 C 4603.48583984375 3822.8896484375 4604.88134765625 3823.1865234375 4606.0146484375 3823.7724609375 C 4607.17041015625 3824.36962890625 4608.0625 3825.26171875 4608.66552734375 3826.424072265625 C 4610.1767578125 3829.336669921875 4609.83642578125 3833.835205078125 4607.62451171875 3840.1767578125 C 4605.96435546875 3844.9365234375 4603.236328125 3850.735595703125 4599.515625 3857.412841796875 C 4593.21435546875 3868.721435546875 4586.123046875 3878.8212890625 4586.05224609375 3878.922119140625 L 4584.794921875 3880.707763671875 Z"/><path class="g" d="M 4580.3173828125 3729.04345703125 C 4576.37939453125 3729.043701171875 4574.0966796875 3731.4482421875 4578.4189453125 3738.16943359375 C 4583.455078125 3746.000244140625 4583.02783203125 3766.88916015625 4583.9306640625 3786.166748046875 C 4584.24169921875 3773.289794921875 4589.52685546875 3744.668212890625 4592.9111328125 3738.16943359375 C 4594.9169921875 3733.93408203125 4585.93359375 3729.04345703125 4580.3173828125 3729.04345703125 M 4583.9306640625 3786.166748046875 C 4583.92626953125 3786.345947265625 4583.9228515625 3786.523193359375 4583.92041015625 3786.6962890625 C 4583.8740234375 3790.0947265625 4583.703125 3793.34814453125 4583.2763671875 3796.6923828125 C 4582.83642578125 3810.089111328125 4578.24609375 3824.902099609375 4566.00732421875 3824.902099609375 C 4564.859375 3824.902099609375 4563.64501953125 3824.77197265625 4562.359375 3824.498046875 C 4562.1630859375 3824.477294921875 4561.9755859375 3824.467041015625 4561.7978515625 3824.467041015625 C 4548.9189453125 3824.467041015625 4584.82568359375 3878.05859375 4584.82568359375 3878.05859375 C 4584.82568359375 3878.05859375 4622.6103515625 3824.39599609375 4601.8671875 3824.3896484375 C 4601.33203125 3824.389404296875 4600.76171875 3824.425048828125 4600.14697265625 3824.498046875 C 4599.6708984375 3824.5546875 4599.2080078125 3824.58251953125 4598.76025390625 3824.58251953125 C 4587.25341796875 3824.58251953125 4584.87109375 3806.25 4583.9306640625 3786.166748046875 M 4580.3173828125 3726.04345703125 C 4582.77783203125 3726.04345703125 4585.77001953125 3726.784423828125 4588.52685546875 3728.076416015625 C 4590.251953125 3728.885009765625 4593.396484375 3730.637451171875 4595.07568359375 3733.290283203125 C 4596.35400390625 3735.31005859375 4596.54833984375 3737.498779296875 4595.62255859375 3739.453369140625 L 4595.59814453125 3739.504638671875 L 4595.57177734375 3739.554931640625 C 4594.166015625 3742.2548828125 4592.064453125 3750.407958984375 4590.2177734375 3760.325439453125 C 4588.34228515625 3770.3984375 4587.0859375 3780.270263671875 4586.93212890625 3786.134033203125 C 4587.3212890625 3794.398193359375 4588.05322265625 3804.779541015625 4590.25390625 3812.03515625 C 4591.25244140625 3815.32763671875 4592.4912109375 3817.79931640625 4593.93603515625 3819.381103515625 C 4595.3076171875 3820.883056640625 4596.84033203125 3821.58251953125 4598.76025390625 3821.58251953125 C 4599.0908203125 3821.58251953125 4599.4384765625 3821.561279296875 4599.79296875 3821.51904296875 C 4600.51513671875 3821.43310546875 4601.21142578125 3821.3896484375 4601.86328125 3821.3896484375 C 4603.728515625 3821.39013671875 4605.35595703125 3821.744140625 4606.70458984375 3822.44140625 C 4608.140625 3823.184326171875 4609.24853515625 3824.292724609375 4609.9970703125 3825.73583984375 C 4610.96240234375 3827.59619140625 4611.28271484375 3829.89404296875 4610.97705078125 3832.760986328125 C 4610.73681640625 3835.017333984375 4610.08544921875 3837.6796875 4609.04052734375 3840.674072265625 C 4607.35205078125 3845.515380859375 4604.58837890625 3851.393310546875 4600.82568359375 3858.145263671875 C 4594.486328125 3869.52197265625 4587.56982421875 3879.3720703125 4587.27880859375 3879.78564453125 L 4584.76416015625 3883.356689453125 L 4582.33349609375 3879.728515625 C 4582.2587890625 3879.61669921875 4574.7724609375 3868.4228515625 4567.91357421875 3856.38623046875 C 4563.853515625 3849.261962890625 4560.79296875 3843.2197265625 4558.81689453125 3838.42724609375 C 4555.931640625 3831.431640625 4555.3056640625 3827.07421875 4556.787109375 3824.298828125 C 4557.27978515625 3823.37548828125 4558.01611328125 3822.631103515625 4558.916015625 3822.146728515625 C 4559.75390625 3821.69580078125 4560.72314453125 3821.467041015625 4561.7978515625 3821.467041015625 C 4562.080078125 3821.467041015625 4562.375 3821.483154296875 4562.67333984375 3821.5146484375 L 4562.83056640625 3821.531005859375 L 4562.98486328125 3821.56396484375 C 4564.0380859375 3821.788330078125 4565.0546875 3821.902099609375 4566.00732421875 3821.902099609375 C 4568.2958984375 3821.902099609375 4570.26318359375 3821.269287109375 4572.02197265625 3819.96728515625 C 4573.69482421875 3818.728515625 4575.16552734375 3816.876220703125 4576.39208984375 3814.462158203125 C 4578.66650390625 3809.985107421875 4580.046875 3803.639404296875 4580.27783203125 3796.593994140625 L 4580.28271484375 3796.452880859375 L 4580.30029296875 3796.312744140625 C 4580.67333984375 3793.388916015625 4580.87060546875 3790.3203125 4580.9208984375 3786.6552734375 C 4580.9228515625 3786.506591796875 4580.92529296875 3786.35498046875 4580.9287109375 3786.201904296875 C 4580.7587890625 3782.551513671875 4580.634765625 3778.815673828125 4580.51513671875 3775.2021484375 C 4580.029296875 3760.569580078125 4579.52734375 3745.438720703125 4575.8955078125 3739.792236328125 C 4574.57080078125 3737.73193359375 4573.73486328125 3735.935302734375 4573.33984375 3734.2998046875 C 4572.87646484375 3732.38037109375 4573.03271484375 3730.690673828125 4573.80419921875 3729.277587890625 C 4574.46337890625 3728.06982421875 4576.18603515625 3726.043701171875 4580.3173828125 3726.04345703125 Z"/></g><path class="d" d="M.006,7.4S18.233,4.273,26,.842c3.147-3.064,4.178,3.18,4.431,6.954C17.709,17.444.006,7.4.006,7.4Z" transform="translate(53.007 70.498) rotate(17)"/><path class="d" d="M0,4.285S10.5,5.951,15.762,7.44C27.31,9.367,26.517,14.323,28,4.273,15.278-5.376,0,4.285,0,4.285Z" transform="translate(113.2 81.68) rotate(163)"/><g class="e" transform="translate(50.039 43.006)"><ellipse class="f" cx="3.642" cy="9.119" rx="3.642" ry="9.119"/><ellipse class="h" cx="3.642" cy="9.119" rx="3.142" ry="8.619"/></g><g class="e" transform="translate(105.883 43.006)"><ellipse class="f" cx="3.642" cy="9.119" rx="3.642" ry="9.119"/><ellipse class="h" cx="3.642" cy="9.119" rx="3.142" ry="8.619"/></g></g></g></svg>