<svg xmlns="http://www.w3.org/2000/svg" xmlns:xlink="http://www.w3.org/1999/xlink" width="373.261" height="209" viewBox="0 0 373.261 209"><defs><style>.a,.b{fill:#f52c79;}.a{stroke:#f52c79;}.b{font-size:59px;font-family:Bauhaus93, "Bauhaus 93";}.c{filter:url(#c);}.d{filter:url(#a);}</style><filter id="a" x="0" y="14.752" width="118.921" height="182.163" filterUnits="userSpaceOnUse"><feOffset dy="3" input="SourceAlpha"/><feGaussianBlur stdDeviation="3" result="b"/><feFlood flood-opacity="0.2"/><feComposite operator="in" in2="b"/><feComposite in="SourceGraphic"/></filter><filter id="c" x="116.261" y="0" width="257" height="209" filterUnits="userSpaceOnUse"><feOffset dy="3" input="SourceAlpha"/><feGaussianBlur stdDeviation="3" result="d"/><feFlood flood-opacity="0.161"/><feComposite operator="in" in2="d"/><feComposite in="SourceGraphic"/></filter></defs><g transform="translate(-491.739 -99)"><g class="d" transform="matrix(1, 0, 0, 1, 491.74, 99)"><path class="a" d="M48.1,163.163h0a46.955,46.955,0,0,1-25.146-7.178,33.069,33.069,0,0,1-8.352-7.476,19.938,19.938,0,0,1-4.074-8.736c-.649-3.734-2.281-8.219-4.008-12.968C1.725,113.627-4.24,97.229,4.365,81.834a188.088,188.088,0,0,1,10.351-16.8c2.589-3.759,3.77-5.474,5.978-12.11,2.895-8.7,2.849-12.885,2.8-17.317-.018-1.686-.037-3.429.1-5.487.171-2.627-1.639-6.069-3.389-9.4a44.049,44.049,0,0,1-2.745-5.87c-.691-2.039-.718-3.578-.085-4.7.848-1.506,2.883-2.338,6.22-2.543a13.009,13.009,0,0,1,6.339,3.142,38.688,38.688,0,0,1,5.644,5.882,69.456,69.456,0,0,1,5.6,8.231.12.12,0,0,1,.016-.032,127.581,127.581,0,0,1,8.029-12.4,57.645,57.645,0,0,1,7.51-8.548C59.613,1.307,62.16,0,64.3,0a4.771,4.771,0,0,1,2.582.742c3.295,2.076,1.4,7.608-1.476,15.982-.834,2.43-1.779,5.184-2.694,8.143-4.7,15.193-9.46,32.224-8.738,34.462a14.438,14.438,0,0,1,.469,1.789c.04.2.056.285.091.285s.059-.042.12-.118c.309-.387,1.251-1.564,4.866-1.956a13.675,13.675,0,0,1,1.408-.062A26.753,26.753,0,0,1,69.7,60.759a10.977,10.977,0,0,1,3.944,2.394,5.887,5.887,0,0,1,1.781,3.962,10.447,10.447,0,0,1,4.85-1.236,10.845,10.845,0,0,1,7.888,3.658,11.128,11.128,0,0,1,3.055,8.241,11.768,11.768,0,0,1,4.534,1.535,8.029,8.029,0,0,1,2.78,2.878c1.872,3.284,1.88,8.356.026,15.507-1.629,6.284-4.4,13.2-7.34,20.325-1.171,2.841-2.284,5.832-3.361,8.725-2.911,7.823-5.921,15.913-10.539,22.384a33.184,33.184,0,0,1-8.359,8.357,31.176,31.176,0,0,1-12.027,4.85A47.752,47.752,0,0,1,48.1,163.163ZM27.226,84.7c-4.272,0-8.519,2.631-12.621,7.82a17.994,17.994,0,0,0-3.674,13.828c.6,4.922,2.837,10.457,6.65,16.452a103.932,103.932,0,0,0,12.067,15.155,165,165,0,0,0,16.745,15.423,169.287,169.287,0,0,0,22.643-22.21c5.95-7.243,9.97-13.936,11.946-19.892,2.471-7.446,1.738-13.756-2.178-18.755-3.946-5.037-8.119-7.592-12.4-7.592a13.853,13.853,0,0,0-7.97,2.841,31.081,31.081,0,0,0-6.339,6.249,53.551,53.551,0,0,0-5.7,9.09,52.807,52.807,0,0,0-5.328-9.2,29.593,29.593,0,0,0-6.057-6.328A13.079,13.079,0,0,0,27.226,84.7Z" transform="translate(9.49 21.25)"/></g><g class="c" transform="matrix(1, 0, 0, 1, 491.74, 99)"><text class="b" transform="translate(125.26 59)"><tspan x="0" y="0">The</tspan><tspan x="0" y="62">Love Talk</tspan><tspan x="0" y="124">Test</tspan></text></g></g></svg>